<?xml version="1.0" encoding="UTF-8" standalone="no"?>
<svg
   xmlns:dc="http://purl.org/dc/elements/1.1/"
   xmlns:cc="http://creativecommons.org/ns#"
   xmlns:rdf="http://www.w3.org/1999/02/22-rdf-syntax-ns#"
   xmlns:svg="http://www.w3.org/2000/svg"
   xmlns="http://www.w3.org/2000/svg"
   viewBox="0 0 1451.96 272.62933"
   xml:space="preserve"
   id="svg2"
   version="1.1"><metadata
     id="metadata8"><rdf:RDF><cc:Work
         rdf:about=""><dc:format>image/svg+xml</dc:format><dc:type
           rdf:resource="http://purl.org/dc/dcmitype/StillImage" /></cc:Work></rdf:RDF></metadata><defs
     id="defs6"><clipPath
       id="clipPath18"
       clipPathUnits="userSpaceOnUse"><path
         id="path16"
         d="M 0,204.472 H 1088.965 V 0 H 0 Z" /></clipPath></defs><g
     transform="matrix(1.3333333,0,0,-1.3333333,0,272.62933)"
     id="g10"><g
       id="g12"><g
         clip-path="url(#clipPath18)"
         id="g14"><g
           transform="translate(102.5094,157.5664)"
           id="g20"><path
             id="path22"
             style="fill:#ffffff;fill-opacity:1;fill-rule:nonzero;stroke:none"
             d="M 0,0 C 1.522,0 2.767,-1.107 2.767,-2.767 V -21.583 C 2.767,-23.105 1.522,-24.35 0,-24.35 h -29.054 v -83.427 c 0,-1.798 -1.107,-2.905 -2.629,-2.905 h -14.665 c -4.565,0 -7.194,3.183 -7.194,7.471 v 78.861 h -29.054 c -1.522,0 -2.906,1.107 -2.906,2.767 v 18.677 c 0,1.661 1.246,2.906 2.906,2.906 z" /></g><g
           transform="translate(208.2041,157.5664)"
           id="g24"><path
             id="path26"
             style="fill:#ffffff;fill-opacity:1;fill-rule:nonzero;stroke:none"
             d="m 0,0 c 1.522,0 2.767,-1.245 2.767,-2.767 v -105.01 c 0,-1.798 -1.107,-2.905 -2.629,-2.905 h -14.665 c -4.566,0 -7.195,3.183 -7.195,7.471 v 34.588 H -67.24 v -39.154 c 0,-1.521 -1.245,-2.905 -2.766,-2.905 h -18.678 c -1.66,0 -2.905,1.245 -2.905,2.905 v 105.01 c 0,1.522 1.107,2.767 2.767,2.767 h 18.677 c 1.522,0 2.905,-1.245 2.905,-2.767 v -41.921 h 45.518 v 41.921 c 0,1.522 1.107,2.767 2.768,2.767 z" /></g><g
           transform="translate(246.5215,112.8785)"
           id="g28"><path
             id="path30"
             style="fill:#ffffff;fill-opacity:1;fill-rule:nonzero;stroke:none"
             d="m 0,0 h 23.52 c 1.521,0 2.905,-1.245 2.905,-2.767 v -18.262 c 0,-1.661 -1.245,-2.906 -2.905,-2.906 H 0.138 v -17.986 h 45.241 c 1.522,0 2.906,-1.245 2.906,-2.766 v -18.402 c 0,-1.66 -1.245,-2.905 -2.906,-2.905 h -66.685 c -1.661,0 -2.906,1.245 -2.906,2.905 v 105.01 c 0,1.522 1.107,2.767 2.767,2.767 h 66.824 c 1.522,0 2.906,-1.245 2.906,-2.767 V 23.52 c 0,-1.66 -1.245,-2.767 -2.906,-2.767 L 0,20.753 Z" /></g><g
           transform="translate(419.0147,70.9579)"
           id="g32"><path
             id="path34"
             style="fill:#ffffff;fill-opacity:1;fill-rule:nonzero;stroke:none"
             d="m 0,0 c 1.523,0 2.768,-1.107 2.768,-2.767 v -18.401 c 0,-1.522 -1.245,-2.905 -2.768,-2.905 h -65.025 c -1.522,0 -2.491,1.245 -2.491,2.767 V 83.842 c 0,1.521 1.107,2.767 2.768,2.767 h 18.815 c 1.523,0 2.906,-1.246 2.906,-2.767 l 0,-83.842 z" /></g><g
           transform="translate(513.1702,102.364)"
           id="g36"><path
             id="path38"
             style="fill:#ffffff;fill-opacity:1;fill-rule:nonzero;stroke:none"
             d="m 0,0 c 0,16.879 -14.112,30.437 -30.852,30.437 -17.018,0 -31.13,-13.558 -31.13,-30.437 0,-16.879 14.112,-30.714 31.13,-30.714 C -14.112,-30.714 0,-16.879 0,0 m -87.715,0 c 0,31.129 25.318,56.171 56.725,56.171 31.405,0 56.585,-25.042 56.585,-56.171 0,-31.406 -25.18,-56.448 -56.585,-56.448 -31.407,0 -56.725,25.042 -56.725,56.448" /></g><g
           transform="translate(647.3645,67.2224)"
           id="g40"><path
             id="path42"
             style="fill:#ffffff;fill-opacity:1;fill-rule:nonzero;stroke:none"
             d="m 0,0 c 1.384,-1.245 1.523,-2.629 0.277,-3.874 -10.238,-11.068 -25.042,-17.432 -40.814,-17.432 -31.405,0 -56.724,24.903 -56.724,56.171 0,31.268 25.319,56.448 56.724,56.448 15.911,0 30.853,-6.503 41.091,-17.571 1.245,-1.245 1.107,-2.629 -0.277,-3.874 L -14.941,57.001 c -1.384,-1.106 -2.629,-0.968 -3.874,0.138 -6.364,5.673 -13.144,8.44 -22.137,8.44 -17.017,0 -30.714,-13.42 -30.714,-30.576 0,-17.432 13.697,-30.575 30.714,-30.575 8.855,0 15.634,2.628 21.998,8.162 1.245,1.107 2.49,1.245 3.874,0.138 z" /></g><g
           transform="translate(708.7838,111.9259)"
           id="g44"><path
             id="path46"
             style="fill:#ffffff;fill-opacity:1;fill-rule:nonzero;stroke:none"
             d="m 0,0 -13.559,-29.331 h 27.117 z m 54.649,-61.843 c 0.829,-1.799 0.138,-3.183 -1.937,-3.183 H 32.097 c -1.521,0 -2.352,0.693 -2.905,1.799 l -5.534,12.037 h -47.317 l -5.533,-12.037 c -0.554,-1.106 -1.523,-1.799 -2.906,-1.799 h -20.753 c -1.799,0 -2.767,1.384 -1.937,3.183 l 52.02,106.807 c 0.554,0.969 1.245,1.384 2.076,1.384 h 1.245 c 0.969,0 1.66,-0.415 2.214,-1.384 z" /></g><g
           transform="translate(842.6289,70.9579)"
           id="g48"><path
             id="path50"
             style="fill:#ffffff;fill-opacity:1;fill-rule:nonzero;stroke:none"
             d="m 0,0 c 1.523,0 2.768,-1.107 2.768,-2.767 v -18.401 c 0,-1.522 -1.245,-2.905 -2.768,-2.905 h -65.025 c -1.522,0 -2.491,1.245 -2.491,2.767 V 83.842 c 0,1.521 1.107,2.767 2.767,2.767 h 18.816 c 1.522,0 2.905,-1.246 2.905,-2.767 l 0,-83.842 z" /></g><g
           transform="translate(1071.9519,116.4069)"
           id="g52"><path
             id="path54"
             style="fill:#ffffff;fill-opacity:1;fill-rule:nonzero;stroke:none"
             d="m 0,0 c 0.122,-15.551 -4.727,-28.346 -12.706,-39.893 -13.096,-18.953 -29.113,-35.148 -48.412,-47.801 -25.946,-17.012 -52.599,-15.475 -76.131,4.579 -7.169,6.109 -13.786,13.096 -19.625,20.494 -16.197,20.522 -17.341,45.801 -2.893,69.378 13.757,22.448 32.128,40.732 54.532,54.517 24.381,15.001 50.671,12.572 72.457,-6.054 C -21.936,45.95 -11.862,35.905 -5.497,22.796 -1.81,15.202 0.125,7.222 0,0" /></g><g
           transform="translate(972.8395,87.7657)"
           id="g56"><path
             id="path58"
             style="fill:#EF6C00;fill-opacity:1;fill-rule:nonzero;stroke:none"
             d="M 0,0 C -0.104,1.762 -0.104,5.079 0,7.048 L -8.085,5.39 C -10.676,4.872 -12.957,4.146 -14.2,3.213 -16.48,1.347 -15.858,-2.902 -12.231,-3.731 -7.359,-4.768 -3.213,-2.487 0,0 M 14.615,-14.615 H 6.426 c -2.695,0 -3.939,1.659 -4.664,3.939 -3.006,-2.28 -6.53,-4.457 -11.609,-4.664 -7.151,-0.415 -17.517,0.622 -19.694,10.261 -3.523,16.169 11.92,19.279 29.748,22.699 0.104,2.281 -1.969,3.525 -5.701,3.939 -4.353,0.519 -10.157,0 -16.066,-2.798 -1.554,-0.622 -2.591,-0.208 -2.901,1.036 l -2.695,8.085 c -0.415,1.14 0.414,2.073 1.451,2.695 4.768,2.798 12.438,4.975 20.729,4.768 C 7.774,35.033 15.34,27.467 14.925,16.584 14.511,6.322 14.718,-1.762 15.962,-11.92 c 0.208,-1.347 -0.207,-2.695 -1.347,-2.695" /></g><g
           transform="translate(1027.4152,76.6753)"
           id="g60"><path
             id="path62"
             style="fill:#EF6C00;fill-opacity:1;fill-rule:nonzero;stroke:none"
             d="m 0,0 c 0.104,-0.829 -0.311,-1.451 -1.037,-2.073 -1.658,-1.244 -5.39,-1.969 -9.121,-1.969 -11.505,0 -17.102,5.078 -17.102,19.071 v 15.548 h -5.804 c -1.141,0 -2.073,0.829 -2.073,2.072 v 1.659 c 0,1.036 0.206,1.762 0.829,2.591 5.804,7.359 13.681,18.45 18.45,26.846 0.518,0.828 0.828,1.243 1.347,1.243 h 1.036 c 0.933,0 1.348,-0.518 1.348,-1.658 V 45.709 h 8.914 c 1.14,0 2.176,-0.933 2.176,-2.176 v -10.78 c 0,-1.14 -1.036,-2.176 -2.176,-2.176 h -7.256 c -0.518,0 -1.244,0.103 -1.658,0.311 V 16.065 c 0,-3.835 1.036,-5.908 4.872,-5.908 1.139,0 2.487,0.104 3.316,0.312 1.348,0.207 2.28,-0.622 2.488,-1.97 z" /></g></g></g></g></svg>