<svg id="Layer_1" data-name="Layer 1" xmlns="http://www.w3.org/2000/svg" width="16" height="16" viewBox="0 0 62.66 62.66"><defs><style>.cls-1{fill:#fff;}</style></defs><title>employee_invert</title><path class="cls-1" d="M43.14,36.63a1.42,1.42,0,0,0-.84-1.45l-5.72-2.77-2.41-1.14A5.85,5.85,0,0,0,35.58,30a7,7,0,0,0,1-1.72,11,11,0,0,0,.51-1.57A7.16,7.16,0,0,0,37.36,25a7.06,7.06,0,0,0-.06-0.93,8.47,8.47,0,0,0-.18-0.93A7.11,7.11,0,0,0,35,19.4a5.48,5.48,0,0,0-7.38,0A7,7,0,0,0,25.48,23a7.67,7.67,0,0,0-.3,2A8.21,8.21,0,0,0,26,28.5a7.09,7.09,0,0,0,2.47,2.83l-2.29,1.08-5.91,2.71a1.52,1.52,0,0,0-.9,1.51v6.51a1.64,1.64,0,0,0,.39,1.11,1.26,1.26,0,0,0,1,.45H41.81a1.2,1.2,0,0,0,.93-0.45,1.64,1.64,0,0,0,.39-1.11V36.63h0Z"/></svg>