<svg x="0" y="0" width="512" height="512" version="1.1"
    xmlns="http://www.w3.org/2000/svg"
    xmlns:xlink="http://www.w3.org/1999/xlink" viewBox="0 0 512 512">
    <title>policeman icon</title>
    <desc>policeman icon from the IconExperience.com G-Collection. Copyright by INCORS GmbH (www.incors.com).</desc>
    <g>
        <path d="M189.9,325.5l-0.25,-40.4l132.7,0l-0.25,40.4c-0.4,54.2 -43.6,45.75 -66.1,82.4c-22.75,-34.95 -65.8,-38.55 -66.1,-82.4z" fill="#f5a557"/>
        <path d="M256,64c84,0 112,57.8 112,115.6c0,72.25 -56,144.55 -112,144.55c-56,0 -112,-72.3 -112,-144.55c0,-57.8 28,-115.6 112,-115.6z" fill="#f5b673"/>
        <path d="M256,64c84,0 112,57.8 112,115.6c0,72.25 -56,144.55 -112,144.55l0,-141.05c-16,-2 -32,-1.05 -64,3.2c-16.7,2.2 -31.4,-7.2 -47,-25.15c5.65,-51.05 36,-97.15 111,-97.15z" fill="#f5a557"/>
        <path d="M256,512c-73.35,0 -192,-8.45 -192,-49.4c0,-68.25 30.65,-87.05 108.6,-127.15c3.15,-6.85 11,-21.9 17.2,-26.2c1.6,11.15 33.8,25.35 66.2,25.35c32.4,0 64.6,-14.2 66.2,-25.35c6.15,4.15 14.1,19.45 17.2,26.2c77.95,40.1 108.6,58.9 108.6,127.15c0,40.95 -118.65,49.4 -192,49.4z" fill="#28b5f5"/>
        <path d="M256,512c73.35,0 192,-8.45 192,-49.4c0,-68.25 -30.65,-87.05 -108.6,-127.15c-3.1,-6.75 -11.05,-22.05 -17.2,-26.2c-1.6,11.15 -33.8,25.35 -66.2,25.35z" fill="#0299e3"/>
        <path d="M256,512l-44,-40.6l25.25,-101.05c-4.5,-3.45 -7.85,-8.15 -9.5,-13.5l28.25,-20.85l17.1,12.65l11.15,8.2c-1.65,5.35 -5,10.05 -9.5,13.5l25.25,101.05z" fill="#546e7a"/>
        <path d="M284.25,356.85c-1.65,5.35 -5,10.05 -9.5,13.5l25.25,101.05l-44,40.6l0,-176z" fill="#445a64"/>
        <path d="M256,0c48.65,9.6 80,17.05 112,34.05c16,17.05 32,40.45 48,68.15c-80,85.15 -71.65,51.05 -160,51.05c-88.35,0 -80,34.1 -160,-51.05c16,-27.7 32,-51.1 48,-68.15c32,-17 66,-25 112,-34.05z" fill="#546e7a"/>
        <path d="M256,0c48.65,9.6 80,17.05 112,34.05c16,17.05 32,40.45 48,68.15c-80,85.15 -71.65,51.05 -160,51.05z" fill="#445a64"/>
        <path d="M144,160c0,-12.35 60.45,-16.1 112,-16.1c51.55,0 112,3.75 112,16.1c-16,16.65 -30.9,24.65 -48,20.2c-32,-8.35 -48,-11.3 -64,-11.3c-16,0 -32,2.95 -64,11.3c-17.1,4.45 -32,-3.55 -48,-20.2z" fill="#445a64"/>
        <path d="M256,143.9c51.55,0 112,3.75 112,16.1c-16,16.65 -30.9,24.65 -48,20.2c-32,-8.35 -48,-11.3 -64,-11.3z" fill="#36464e"/>
        <path d="M256,96c61.85,0 112,16 112,32l0,32l0,0l0,0c0,-8.85 -50.15,-16 -112,-16c-61.85,0 -112,7.15 -112,16l0,-32c0,-16 50.15,-32 112,-32z" fill="#445a64"/>
        <path d="M256,96c61.85,0 112,16 112,32l0,32l0,0l0,0c0,-8.85 -50.15,-16 -112,-16z" fill="#36464e"/>
        <path d="M256,123.5c61.85,0 112,11.65 112,20.5c0,5.35 0,10.65 0,16c0,-8.85 -50.15,-16 -112,-16c-61.85,0 -112,7.15 -112,16l0,-16c0,-8.85 50.15,-20.5 112,-20.5z" fill="#788f9b"/>
        <path d="M256,123.5c61.85,0 112,11.65 112,20.5l0,16c0,-8.85 -50.15,-16 -112,-16z" fill="#546e7a"/>
        <path d="M256,84.3c-6.05,-4.4 -28.1,-0.05 -28.1,-24.2c0,-13.15 6,-15.35 6,-21.95c0,-4.4 -4,-8.8 -6,-10.95l9.4,-10.3c2.05,0.95 3.1,1.5 6.65,1.5c3.55,0 8.95,-1.05 12.05,-4.4c3.1,3.35 8.5,4.4 12.05,4.4c3.55,0 4.65,-0.55 6.7,-1.5l9.35,10.3c-2,2.15 -6,6.55 -6,10.95c0,6.6 6,8.8 6,21.95c0,24.15 -22.05,19.8 -28.1,24.2z" fill="#fbd734"/>
        <path d="M256,84.3l0,-70.3c3.1,3.35 8.5,4.4 12.05,4.4c3.55,0 4.65,-0.55 6.7,-1.5l9.35,10.3c-2,2.15 -6,6.55 -6,10.95c0,6.6 6,8.8 6,21.95c0,24.15 -22.05,19.8 -28.1,24.2z" fill="#f9bf2c"/>
        <path d="M316.3,510.1c2.15,-7.5 6.05,-10.55 6.05,-16.45c0,-5.4 -4.9,-10.8 -7.35,-13.45l11.5,-12.65c2.5,1.2 3.85,1.85 8.2,1.85c4.35,0 11,-1.25 14.8,-5.4c3.8,4.15 10.45,5.4 14.8,5.4c4.35,0 5.7,-0.65 8.2,-1.85l11.5,12.65c-2.45,2.65 -7.4,8.05 -7.4,13.45c0,3.5 1.4,6 2.95,9c-19.6,3.8 -41.55,6.15 -63.25,7.45z" fill="#f9bf2c"/>
    </g>
</svg>