<?xml version="1.0" encoding="UTF-8"?>
<!DOCTYPE svg PUBLIC "-//W3C//DTD SVG 1.1//EN" "http://www.w3.org/Graphics/SVG/1.1/DTD/svg11.dtd">
<svg xmlns="http://www.w3.org/2000/svg" xml:space="preserve" width="580px" height="580px" shape-rendering="geometricPrecision" text-rendering="geometricPrecision" image-rendering="optimizeQuality" fill-rule="nonzero" clip-rule="nonzero" viewBox="0 0 5800 5800" xmlns:xlink="http://www.w3.org/1999/xlink">
	<title>workplace icon</title>
	<desc>workplace icon from the IconExperience.com I-Collection. Copyright by INCORS GmbH (www.incors.com).</desc>
		<path id="curve28" fill="#000000" d="M1200 4900l500 0 0 200 -500 0 0 -200zm2900 0l500 0 0 200 -500 0 0 -200zm-2700 -400l400 0 0 200 -400 0 0 -200zm600 0l200 0 0 200 -200 0 0 -200zm400 0l200 0 0 200 -200 0 0 -200zm400 0l200 0 0 200 -200 0 0 -200zm400 0l200 0 0 200 -200 0 0 -200zm400 0l200 0 0 200 -200 0 0 -200zm400 0l400 0 0 200 -400 0 0 -200zm-2100 400l2000 0 0 200 -2000 0 0 -200zm3226 400l-554 -950c-18,10 -18,-50 -87,-50l-3170 0c-38,0 -67,16 -87,49l-554 951 4452 0zm0 200l-4452 0c-154,0 -250,-168 -173,-301l555 -950c54,-93 151,-149 259,-149l3170 0c108,0 205,56 259,149l555 950c77,133 -19,301 -173,301zm-26 -5200l0 3000 -2100 0 0 400 900 0 0 200 -2000 0 0 -200 900 0 0 -400 -2100 0 0 -3000 4400 0zm-200 200l-4000 0 0 2600 4000 0 0 -2600z"/>
</svg>